<?xml version="1.0" encoding="iso-8859-1"?>
<!-- Generator: Adobe Illustrator 19.0.0, SVG Export Plug-In . SVG Version: 6.00 Build 0)  -->
<svg version="1.1" id="Layer_1" xmlns="http://www.w3.org/2000/svg" xmlns:xlink="http://www.w3.org/1999/xlink" x="0px" y="0px"
	 viewBox="0 0 512.002 512.002" style="enable-background:new 0 0 512.002 512.002;" xml:space="preserve">
<g transform="translate(0 -1)">
	<g>
		<path d="M502.087,461.109l-58.161-38.774c0.837-3.464,1.291-7.078,1.291-10.8V46.746c0-26.364-28.315-43.042-51.37-30.234
			L334.03,52.823L276.804,17.38c-22.977-14.322-52.837,2.219-52.837,29.365v221.741c0,12.065-2.197,24.078-6.473,35.426
			c-22.429,59.576-51.377,88.033-97.107,88.033H37.198C16.841,391.945,0,409.537,0,429.633v2.115
			c0,18.93,12.58,35.554,30.792,40.717l83.413,23.641c12.964,3.892,27.107,5.786,41.843,5.786
			c54.537,0,99.465-16.306,120.865-42.505c1.033-1.26,4.074-2.017,14.682-2.017h107.787c4.775,0,9.378-0.732,13.706-2.086
			l64.303,42.869c10.229,6.82,24.051,4.055,30.87-6.174C515.081,481.749,512.317,467.928,502.087,461.109z M399.382,412.848H291.595
			c-23.06,0-36.931,3.452-49.138,18.345c-11.82,14.471-44.074,26.177-86.408,26.177c-10.575,0-20.432-1.32-29.377-4.003l-59.62-16.9
			h53.335c67.966,0,110.527-41.839,138.771-116.862c6.161-16.35,9.33-33.681,9.33-51.118V64.599l53.704,33.261l11.607,7.189
			l66.897-40.626v347.112C400.696,412.263,400.111,412.848,399.382,412.848z"/>
	</g>
</g>
<g>
</g>
<g>
</g>
<g>
</g>
<g>
</g>
<g>
</g>
<g>
</g>
<g>
</g>
<g>
</g>
<g>
</g>
<g>
</g>
<g>
</g>
<g>
</g>
<g>
</g>
<g>
</g>
<g>
</g>
</svg>
