<?xml version="1.0" encoding="iso-8859-1"?>
<!-- Generator: Adobe Illustrator 18.0.0, SVG Export Plug-In . SVG Version: 6.00 Build 0)  -->
<!DOCTYPE svg PUBLIC "-//W3C//DTD SVG 1.1//EN" "http://www.w3.org/Graphics/SVG/1.1/DTD/svg11.dtd">
<svg version="1.1" id="Capa_1" xmlns="http://www.w3.org/2000/svg" xmlns:xlink="http://www.w3.org/1999/xlink" x="0px" y="0px"
	 viewBox="0 0 447.741 447.741" style="enable-background:new 0 0 447.741 447.741;" xml:space="preserve">
<path d="M438.514,303.777c-7.766-8.988-18.954-15.425-33.255-19.132c-40.416-10.478-72.458-13.607-72.777-13.637
	c-1.902-0.186-3.754,0.744-4.747,2.383c-0.215,0.353-19.793,31.843-56.07,31.84c-3.886,0-7.967-0.362-12.231-1.162
	c-35.187-6.597-65.332-70.622-91.928-127.109c-7.498-15.924-14.58-30.965-21.558-44.287C112.995,69.765,67.57,22.492,67.115,22.022
	c-1.627-1.682-4.203-2.01-6.201-0.79c-0.867,0.53-21.421,13.275-38.53,39.805C6.614,85.489-8.997,126.717,6.19,184.267
	c27.976,106.014,23.88,235.742,23.836,237.04c-0.046,1.355,0.459,2.671,1.401,3.646c0.942,0.975,2.24,1.526,3.596,1.526h16.5
	c2.613,0,4.785-2.012,4.985-4.617l14.735-191.553c0.476-5.751,3.979-10.415,9.372-12.476c5.376-2.056,11.083-0.922,15.261,3.033
	c21.882,20.715,49.891,49.784,59.064,70.633c8.417,19.13,24.53,50.963,41.552,78.955c21.485,35.331,37.526,53.625,49.04,55.927
	c2.853,0.571,6.898,0.861,11.896,0.861c16.981,0,44.934-3.353,74.259-10.466c21.326-5.173,40.626-11.639,57.364-19.217
	c19.995-9.053,35.822-19.516,47.042-31.098c0.49-0.505,0.867-1.109,1.108-1.77l8.162-22.444
	C450.184,328.989,447.56,314.249,438.514,303.777z M40.139,416.479c0.053-2.992,0.105-7.228,0.116-12.503h7.599l-0.962,12.503
	H40.139z M61.275,229.513L48.623,393.976h-8.399c-0.351-44.425-3.855-134.537-24.366-212.261c-1.794-6.8-3.182-13.486-4.167-20.056
	c20.522,13.623,49.043,32.879,67.404,46.154c-0.688,0.198-1.373,0.42-2.052,0.679C68.108,211.908,62.066,219.951,61.275,229.513z
	 M95.916,207.894c-21.043-16.345-74.351-51.703-85.643-59.165c-2.102-30.072,4.666-57.516,20.274-81.896
	c11.943-18.656,25.983-30.177,32.26-34.773c10.388,11.328,46.747,52.688,74.282,105.254c6.879,13.134,13.917,28.082,21.369,43.908
	c27.618,58.656,58.92,125.138,99.132,132.678c21.051,3.944,41.344-0.914,58.688-14.054c9.271-7.022,15.356-14.62,18.183-18.561
	c8.674,1.012,35.667,4.583,68.289,13.041c12.298,3.188,21.785,8.568,28.198,15.99c4.25,4.92,6.565,11.135,6.77,17.543
	c-59.071,29.426-171.673,41.863-200.998,37.674c-21.238-3.034-57.335-54.584-75.185-83.26c-1.621-3.021-7.535-12.108-8.496-13.456
	c-12.658-17.757-31.473-37.228-47.63-52.682C104.514,215.278,98.923,210.229,95.916,207.894z M428.174,360.255
	c-46.019,46.387-160.348,60.386-180.681,56.321c-8.02-1.604-23.891-20.788-42.456-51.317c-4.872-8.012-9.666-16.339-14.221-24.585
	c17.847,21.412,32.773,33.084,44.489,34.758c4.099,0.585,9.636,0.88,16.308,0.88c42.188,0,129.615-11.79,183.944-36.358
	L428.174,360.255z"/>
<g>
</g>
<g>
</g>
<g>
</g>
<g>
</g>
<g>
</g>
<g>
</g>
<g>
</g>
<g>
</g>
<g>
</g>
<g>
</g>
<g>
</g>
<g>
</g>
<g>
</g>
<g>
</g>
<g>
</g>
</svg>
