<?xml version="1.0" encoding="iso-8859-1"?>
<!-- Generator: Adobe Illustrator 18.0.0, SVG Export Plug-In . SVG Version: 6.00 Build 0)  -->
<!DOCTYPE svg PUBLIC "-//W3C//DTD SVG 1.1//EN" "http://www.w3.org/Graphics/SVG/1.1/DTD/svg11.dtd">
<svg version="1.1" id="Capa_1" xmlns="http://www.w3.org/2000/svg" xmlns:xlink="http://www.w3.org/1999/xlink" x="0px" y="0px"
    viewBox="0 0 477.237 477.237" style="enable-background:new 0 0 477.237 477.237;" xml:space="preserve">
    <g>
        <path d="M462.613,267.396c-22.526-15.019-41.16-14.829-78.311-10.811c-36.634,3.958-116.104-19.33-138.359-36.949
		c-18.145-14.364-60.155-69.355-77.375-92.332c-5.754-7.677-14.87-11.843-24.332-11.333l-8.327-10.6
		c-3.448-4.39-8.624-7.074-14.198-7.365c-5.573-0.279-11.001,1.84-14.888,5.845l-15.029,15.487
		c-21.33-1.196-35.153-5.921-42.875-9.589h0c-6.245-2.966-13.422-2.516-19.2,1.205c-5.707,3.675-9.045,9.931-8.931,16.734
		c0.58,34.454-0.042,97.335-10.72,131.37c-10.11,32.225-12.622,64.652-7.467,96.382c0.122,0.748,0.221,1.357,0.288,1.822
		c0.303,2.119,1.92,3.811,4.024,4.207c46.788,8.814,117.76,17.787,212.847,17.785c31.964,0,66.673-1.015,104.077-3.39l1.214-0.077
		c55.977-3.546,102.793-17.046,139.149-40.128c6.135-3.896,10.36-10.272,11.592-17.494
		C478.193,304.087,479.673,278.769,462.613,267.396z M452.87,273.086c-3.302,4.053-10.723,11.2-26.133,18.868
		c-9.379,4.667-19.911,8.623-31.131,11.982c-5.017-9.375-5.981-27.554-5.886-37.867C421.803,262.779,436.575,263.5,452.87,273.086z
		 M343.293,277.154l2.291-12.85c1.998,0.319,3.977,0.614,5.93,0.881l-2.318,13.029c-0.139,0.786-0.577,1.471-1.233,1.929
		c-0.657,0.459-1.456,0.634-2.245,0.491c-1.437-0.257-2.479-1.492-2.479-2.938C343.239,277.519,343.253,277.363,343.293,277.154z
		 M302.656,271.991l7.998-15.223c1.983,0.529,3.973,1.044,5.965,1.542l-8.658,16.474c-0.371,0.708-0.996,1.229-1.761,1.467
		c-0.764,0.237-1.573,0.163-2.282-0.21c-0.992-0.522-1.608-1.543-1.608-2.665C302.309,272.898,302.428,272.427,302.656,271.991z
		 M280.155,247.257l-16.401,18.607c-1.092,1.241-2.99,1.36-4.227,0.273c-0.647-0.571-1.019-1.392-1.019-2.251
		c0-0.73,0.267-1.435,0.753-1.986l14.863-16.887C276.093,245.769,278.107,246.517,280.155,247.257z M246.915,232.327L226.1,249.056
		c-1.288,1.035-3.186,0.826-4.222-0.461c-0.544-0.678-0.659-1.391-0.659-1.869c0-0.923,0.408-1.779,1.122-2.352l19.28-15.487
		C243.2,230.022,244.971,231.17,246.915,232.327z M233.861,222.294l-17.78,14.282c-3.09,2.478-4.862,6.178-4.862,10.15
		c0,2.945,1.016,5.832,2.866,8.136c2.567,3.188,6.343,4.847,10.151,4.847c2.856-0.001,5.731-0.934,8.126-2.855l24.145-19.405
		c2.462,1.194,5.075,2.387,7.813,3.57l-12.561,14.271c-2.096,2.376-3.25,5.43-3.25,8.597c0,3.727,1.604,7.279,4.408,9.755
		c2.396,2.106,5.412,3.242,8.571,3.241c0.28,0,0.562-0.009,0.844-0.026c3.465-0.221,6.637-1.779,8.928-4.385l19.128-21.702
		c3.413,1.113,6.894,2.194,10.421,3.234l-7.015,13.353c-0.972,1.865-1.485,3.947-1.485,6.021c0,4.847,2.664,9.259,6.95,11.514
		c1.893,0.997,3.955,1.503,6.035,1.503c1.297,0,2.602-0.197,3.875-0.593c3.319-1.033,6.035-3.296,7.646-6.368l9.854-18.751
		c3.038,0.672,6.065,1.301,9.066,1.882l-2.279,12.784c-0.145,0.765-0.218,1.555-0.218,2.349c0,6.299,4.51,11.674,10.718,12.782
		c0.774,0.139,1.551,0.207,2.321,0.207c2.633,0,5.199-0.802,7.405-2.34c2.851-1.988,4.754-4.967,5.359-8.383l2.426-13.635
		c6.569,0.598,12.721,0.824,18.24,0.606c-0.044,7.564,0.397,20.971,3.495,32.268c-25.108-0.774-110.651-5.139-156.032-29.067
		c-45.651-24.07-92.333-116.093-104.55-141.483c7.633-0.659,14.518-1.585,20.173-2.497c2.718-0.44,5.428-0.262,7.971,0.448
		l-6.573,3.293c-4.431,2.216-7.183,6.673-7.183,11.632c0,2.046,0.466,4.008,1.38,5.82c2.278,4.545,6.876,7.176,11.642,7.175
		c1.954,0,3.936-0.441,5.798-1.375l14.309-7.17c3.456,4.541,7.134,9.333,10.944,14.24l-15.58,7.808
		c-4.431,2.216-7.183,6.673-7.183,11.632c0,2.048,0.466,4.01,1.38,5.82c2.278,4.546,6.878,7.177,11.646,7.177
		c1.956,0,3.939-0.442,5.804-1.377l20.402-10.227c3.26,4.04,6.518,8.021,9.727,11.871l-19.007,11.547
		c-3.863,2.336-6.262,6.597-6.262,11.119c0,2.382,0.653,4.715,1.887,6.745c1.801,2.966,4.65,5.054,8.022,5.878
		c1.032,0.252,2.075,0.377,3.11,0.377c2.353,0,4.667-0.644,6.726-1.896l22.856-13.876
		C227.921,216.395,231.032,219.598,233.861,222.294z M160.566,133.302c1.097,1.464,2.25,2.998,3.432,4.565l-12.649,6.339
		c-1.476,0.738-3.279,0.138-4.025-1.352c-0.208-0.414-0.314-0.861-0.314-1.329c0-1.147,0.635-2.177,1.66-2.689l11.653-5.838
		C160.402,133.101,160.488,133.198,160.566,133.302z M187.361,168.254c1.26,1.602,2.529,3.207,3.802,4.812l-18.495,9.271
		c-1.479,0.74-3.287,0.14-4.036-1.354c-0.208-0.412-0.314-0.859-0.314-1.327c0-1.147,0.635-2.177,1.66-2.69L187.361,168.254z
		 M213.817,200.65c1.345,1.567,2.678,3.106,3.987,4.597l-21.244,12.898c-0.684,0.417-1.489,0.539-2.267,0.351
		c-0.778-0.19-1.435-0.672-1.851-1.356c-0.287-0.473-0.433-0.995-0.433-1.553c0-1.06,0.538-2.018,1.446-2.567L213.817,200.65z
		 M114,110.815c1.877-1.936,4.493-2.979,7.189-2.822c2.692,0.141,5.191,1.437,6.856,3.557l4.686,5.965
		c-10,1.312-19.062,1.945-27.25,2.079L114,110.815z M30.788,127.521c-0.057-3.37,1.527-6.344,4.346-8.158
		c2.849-1.836,6.398-2.053,9.495-0.58c20.431,9.705,45.691,11.503,67.246,10.565c4.062,8.635,16.413,34.142,33.139,61.739
		c27.798,45.865,53.871,75.437,77.494,87.893c44.351,23.385,122.154,28.778,153.842,30.018
		c-34.609,7.954-72.966,11.275-103.719,12.563c-146.406,6.142-241.876-14.28-261.521-18.96c1.434-13.497,4.262-27.037,8.5-40.546
		C30.709,226.674,31.377,162.578,30.788,127.521z M321.198,342.91c-145.542,9.074-249.268-2.579-311.102-14.119
		C9.94,323.432,10,318.06,10.293,312.677c20.244,4.708,94.861,20.021,208.456,20.021c17.215,0,35.35-0.353,54.299-1.146
		c18.683-0.783,35.557-2.085,50.811-3.78C323.018,331.64,322.018,336.865,321.198,342.91z M12.228,352.286
		c-0.677-4.392-1.18-8.799-1.548-13.217c46.796,8.584,116.505,17.087,209.08,17.087c30.897,0,64.367-0.952,100.35-3.16
		c-0.332,4.202-0.524,8.613-0.494,13.109C176.564,374.896,74.074,363.653,12.228,352.286z M465.935,316.486
		c-0.757,4.438-3.343,8.351-7.095,10.733c-33.797,21.456-77.251,34.308-129.222,38.228c-0.025-16.698,3.245-32.429,4.798-38.944
		c87.884-11.37,117.349-36.203,126.397-47.407C465.355,284.476,469.558,295.232,465.935,316.486z" />
        <path d="M173.84,315.556c7.72,0,14-6.28,14-14s-6.28-14-14-14s-14,6.28-14,14S166.12,315.556,173.84,315.556z M173.84,297.556
		c2.206,0,4,1.794,4,4s-1.794,4-4,4s-4-1.794-4-4S171.634,297.556,173.84,297.556z" />
        <path d="M207.84,315.556c7.72,0,14-6.28,14-14s-6.28-14-14-14s-14,6.28-14,14S200.12,315.556,207.84,315.556z M207.84,297.556
		c2.206,0,4,1.794,4,4s-1.794,4-4,4s-4-1.794-4-4S205.634,297.556,207.84,297.556z" />
        <path d="M88.84,249.556c22.056,0,40-17.944,40-40s-17.944-40-40-40s-40,17.944-40,40S66.783,249.556,88.84,249.556z M88.84,179.556
		c16.542,0,30,13.458,30,30s-13.458,30-30,30s-30-13.458-30-30S72.298,179.556,88.84,179.556z" />
    </g>
    <g></g>
    <g></g>
    <g></g>
    <g></g>
    <g></g>
    <g></g>
    <g></g>
    <g></g>
    <g></g>
    <g></g>
    <g></g>
    <g></g>
    <g></g>
    <g></g>
    <g></g>
</svg>