<?xml version="1.0" encoding="iso-8859-1"?>
<!-- Generator: Adobe Illustrator 19.0.0, SVG Export Plug-In . SVG Version: 6.00 Build 0)  -->
<svg version="1.1" id="Layer_1" xmlns="http://www.w3.org/2000/svg" xmlns:xlink="http://www.w3.org/1999/xlink" x="0px" y="0px"
	 viewBox="0 0 512 512" style="enable-background:new 0 0 512 512;" xml:space="preserve">
<g transform="translate(1 1)">
	<g>
		<g>
			<path d="M212.332,109.933c0-4.713-3.82-8.533-8.533-8.533s-8.533,3.82-8.533,8.533h-68.267c-4.713,0-8.533,3.82-8.533,8.533
				s3.82,8.533,8.533,8.533h68.267v8.533c0,4.713,3.82,8.533,8.533,8.533s8.533-3.82,8.533-8.533V127
				c4.713,0,8.533-3.82,8.533-8.533S217.045,109.933,212.332,109.933z"/>
			<path d="M474.369,280.777L365.756,172.165c-1.667-1.667-3.851-2.5-6.035-2.499c-2.184,0-4.369,0.833-6.035,2.499l-90.154,90.154
				V58.736v-0.003V7.536c0-4.713-3.82-8.533-8.533-8.533H203.85c-0.017,0-0.034-0.003-0.051-0.003s-0.034,0.002-0.051,0.003H152.65
				c-0.017,0-0.034-0.003-0.051-0.003s-0.034,0.002-0.051,0.003h-51.149c-4.713,0-8.533,3.82-8.533,8.533v48.891L34.294,156.834
				c-1.016,1.741-1.382,3.785-1.035,5.771l59.733,341.333c0.715,4.083,4.26,7.062,8.406,7.062h153.6c4.261,0,7.782-3.126,8.42-7.207
				l182.268-182.268c0.009-0.008,0.018-0.016,0.027-0.024l28.655-28.655C477.701,289.513,477.701,284.11,474.369,280.777z
				 M359.721,190.268l96.543,96.543l-16.586,16.586l-96.543-96.543L359.721,190.268z M161.132,50.2V16.069h34.133V50.2H161.132z
				 M246.465,50.2h-34.133V16.069h34.133V50.2z M144.065,16.069V50.2h-34.133V16.069H144.065z M50.609,162.737l55.69-95.468h140.167
				V282.92v211.013H108.568L50.609,162.737z M263.532,286.455l67.534-67.534l96.544,96.544L263.532,479.543V286.455z"/>
		</g>
	</g>
</g>
<g>
</g>
<g>
</g>
<g>
</g>
<g>
</g>
<g>
</g>
<g>
</g>
<g>
</g>
<g>
</g>
<g>
</g>
<g>
</g>
<g>
</g>
<g>
</g>
<g>
</g>
<g>
</g>
<g>
</g>
</svg>
